<?xml version="1.0" standalone="no"?>
<!DOCTYPE svg PUBLIC "-//W3C//DTD SVG 20010904//EN"
 "http://www.w3.org/TR/2001/REC-SVG-20010904/DTD/svg10.dtd">
<svg version="1.0" xmlns="http://www.w3.org/2000/svg"
 width="256.000000pt" height="256.000000pt" viewBox="0 0 256.000000 256.000000"
 preserveAspectRatio="xMidYMid meet">
<metadata>
Created by potrace 1.11, written by Peter Selinger 2001-2013
</metadata>
<g transform="translate(0.000000,256.000000) scale(0.100000,-0.100000)"
fill="#000000" stroke="none">
<path d="M1235 2513 c-189 -16 -387 -71 -527 -145 -339 -181 -597 -542 -653
-915 -75 -495 144 -980 565 -1253 102 -66 259 -138 325 -149 171 -29 241 -36
360 -35 386 2 748 184 980 493 290 385 337 892 121 1318 -166 329 -455 559
-815 648 -93 23 -254 47 -296 43 -11 -1 -38 -3 -60 -5z m490 -108 c372 -140
644 -448 753 -854 23 -87 25 -113 25 -286 0 -173 -2 -199 -25 -286 -146 -541
-563 -890 -1118 -934 -98 -8 -280 9 -325 31 -50 23 -208 184 -247 250 -62 105
-80 168 -86 287 -6 136 8 207 62 322 71 151 158 239 265 272 25 7 120 18 211
23 91 5 190 16 220 24 171 47 333 181 410 339 28 58 47 116 57 175 43 240 -60
491 -262 639 -39 29 -20 29 60 -2z m-373 -421 c39 -20 61 -58 61 -104 0 -46
-22 -84 -61 -104 -39 -20 -123 -29 -155 -17 l-27 11 0 110 c0 105 1 111 23
120 28 12 123 2 159 -16z"/>
<path d="M1212 780 c-97 -60 -97 -210 0 -270 27 -16 51 -20 136 -20 l102 0 0
155 0 155 -102 0 c-85 0 -109 -4 -136 -20z"/>
</g>
</svg>
